# xmcd CD database file
#
# Track frame offsets:
#	150
#	20987
#	44630
#	69869
#	104536
#	121167
#	140785
#	171313
#	188464
#	204124
#	220175
#	255656
#
# Disc length: 3691 seconds
#
# Revision: 0
# Processed by: cddbd v1.5.1PL2 Copyright (c) Steve Scherf et al.
# Submitted via: CDex 1.50beta10
#
DISCID=b00e690c
DTITLE=Freeburg Five - Inspiration
DYEAR=1900
DGENRE=Jazz
TTITLE0=Christopher Columbus
TTITLE1=If I Had You
TTITLE2=The Girl From Ipanema
TTITLE3=Don't Get Around Much Anymore
TTITLE4=On A Slow Boat To China
TTITLE5=Blues My Naughty Sweety Gives To Me
TTITLE6=Misty
TTITLE7=Sweet Georgia Brown
TTITLE8=Petite Fleur
TTITLE9=I Can't Give You ANything But Love Baby
TTITLE10=Blue Turning Grey Over You
TTITLE11=Some Of These Days
EXTD=
EXTT0=
EXTT1=
EXTT2=
EXTT3=
EXTT4=
EXTT5=
EXTT6=
EXTT7=
EXTT8=
EXTT9=
EXTT10=
EXTT11=
PLAYORDER=
